<svg width="587" height="239" viewBox="0 0 587 239" fill="none" xmlns="http://www.w3.org/2000/svg">
<path d="M58 137.563V154.563H21.75V173.938H49.75V190.188H21.75V225.938H0.375001V137.563H58ZM91.1035 155.313C96.4369 155.313 101.02 156.522 104.854 158.938C108.687 161.355 111.52 164.647 113.354 168.813V156.188H134.604V225.938H113.354V213.313C111.52 217.48 108.687 220.772 104.854 223.188C101.02 225.605 96.4369 226.813 91.1035 226.813C85.3535 226.813 80.1868 225.397 75.6035 222.563C71.1035 219.647 67.5202 215.48 64.8535 210.063C62.2702 204.647 60.9785 198.313 60.9785 191.063C60.9785 183.73 62.2702 177.397 64.8535 172.063C67.5202 166.647 71.1035 162.522 75.6035 159.688C80.1868 156.772 85.3535 155.313 91.1035 155.313ZM97.9785 174.063C93.3952 174.063 89.6869 175.563 86.8535 178.563C84.1035 181.563 82.7285 185.73 82.7285 191.063C82.7285 196.397 84.1035 200.563 86.8535 203.563C89.6869 206.563 93.3952 208.063 97.9785 208.063C102.479 208.063 106.145 206.522 108.979 203.438C111.895 200.355 113.354 196.23 113.354 191.063C113.354 185.813 111.895 181.688 108.979 178.688C106.145 175.605 102.479 174.063 97.9785 174.063ZM170.32 155.313C179.154 155.313 186.195 157.522 191.445 161.938C196.779 166.355 200.112 172.188 201.445 179.438H181.445C180.862 176.605 179.529 174.397 177.445 172.813C175.445 171.147 172.904 170.313 169.82 170.313C167.404 170.313 165.57 170.855 164.32 171.938C163.07 172.938 162.445 174.397 162.445 176.313C162.445 178.48 163.57 180.105 165.82 181.188C168.154 182.272 171.779 183.355 176.695 184.438C182.029 185.688 186.404 186.98 189.82 188.313C193.237 189.563 196.195 191.647 198.695 194.563C201.195 197.48 202.445 201.397 202.445 206.313C202.445 210.313 201.362 213.855 199.195 216.938C197.029 220.022 193.904 222.438 189.82 224.188C185.737 225.938 180.904 226.813 175.32 226.813C165.904 226.813 158.362 224.73 152.695 220.563C147.029 216.397 143.57 210.438 142.32 202.688H162.945C163.279 205.688 164.529 207.98 166.695 209.563C168.945 211.147 171.82 211.938 175.32 211.938C177.737 211.938 179.57 211.397 180.82 210.313C182.07 209.147 182.695 207.647 182.695 205.813C182.695 203.397 181.529 201.688 179.195 200.688C176.945 199.605 173.237 198.48 168.07 197.313C162.904 196.23 158.654 195.063 155.32 193.813C151.987 192.563 149.112 190.563 146.695 187.813C144.279 184.98 143.07 181.147 143.07 176.313C143.07 170.063 145.445 165.022 150.195 161.188C154.945 157.272 161.654 155.313 170.32 155.313ZM249.406 207.563V225.938H239.781C231.615 225.938 225.24 223.938 220.656 219.938C216.156 215.855 213.906 209.147 213.906 199.813V174.188H204.531V156.188H213.906V139.063H235.281V156.188H249.281V174.188H235.281V200.188C235.281 202.938 235.823 204.855 236.906 205.938C238.073 207.022 239.99 207.563 242.656 207.563H249.406Z" fill="#FF7E00"/>
<path d="M298.988 139.434V146.558H284.116V154.254H295.244V161.17H284.116V175.938H275.224V139.434H298.988ZM316.87 176.354C314.027 176.354 311.462 175.748 309.174 174.534C306.92 173.321 305.135 171.588 303.818 169.334C302.535 167.081 301.894 164.446 301.894 161.43C301.894 158.449 302.552 155.832 303.869 153.578C305.187 151.29 306.99 149.54 309.278 148.326C311.566 147.113 314.131 146.506 316.974 146.506C319.816 146.506 322.382 147.113 324.67 148.326C326.958 149.54 328.76 151.29 330.078 153.578C331.395 155.832 332.054 158.449 332.054 161.43C332.054 164.412 331.378 167.046 330.026 169.334C328.708 171.588 326.888 173.321 324.566 174.534C322.278 175.748 319.712 176.354 316.87 176.354ZM316.87 168.658C318.568 168.658 320.007 168.034 321.186 166.786C322.399 165.538 323.006 163.753 323.006 161.43C323.006 159.108 322.416 157.322 321.238 156.074C320.094 154.826 318.672 154.202 316.974 154.202C315.24 154.202 313.802 154.826 312.658 156.074C311.514 157.288 310.942 159.073 310.942 161.43C310.942 163.753 311.496 165.538 312.606 166.786C313.75 168.034 315.171 168.658 316.87 168.658ZM349.979 176.354C347.136 176.354 344.571 175.748 342.283 174.534C340.03 173.321 338.244 171.588 336.927 169.334C335.644 167.081 335.003 164.446 335.003 161.43C335.003 158.449 335.662 155.832 336.979 153.578C338.296 151.29 340.099 149.54 342.387 148.326C344.675 147.113 347.24 146.506 350.083 146.506C352.926 146.506 355.491 147.113 357.779 148.326C360.067 149.54 361.87 151.29 363.187 153.578C364.504 155.832 365.163 158.449 365.163 161.43C365.163 164.412 364.487 167.046 363.135 169.334C361.818 171.588 359.998 173.321 357.675 174.534C355.387 175.748 352.822 176.354 349.979 176.354ZM349.979 168.658C351.678 168.658 353.116 168.034 354.295 166.786C355.508 165.538 356.115 163.753 356.115 161.43C356.115 159.108 355.526 157.322 354.347 156.074C353.203 154.826 351.782 154.202 350.083 154.202C348.35 154.202 346.911 154.826 345.767 156.074C344.623 157.288 344.051 159.073 344.051 161.43C344.051 163.753 344.606 165.538 345.715 166.786C346.859 168.034 348.28 168.658 349.979 168.658ZM368.112 161.378C368.112 158.397 368.667 155.78 369.776 153.526C370.92 151.273 372.463 149.54 374.404 148.326C376.346 147.113 378.512 146.506 380.904 146.506C382.811 146.506 384.544 146.905 386.104 147.702C387.699 148.5 388.947 149.574 389.848 150.926V137.458H398.74V175.938H389.848V171.778C389.016 173.165 387.82 174.274 386.26 175.106C384.735 175.938 382.95 176.354 380.904 176.354C378.512 176.354 376.346 175.748 374.404 174.534C372.463 173.286 370.92 171.536 369.776 169.282C368.667 166.994 368.112 164.36 368.112 161.378ZM389.848 161.43C389.848 159.212 389.224 157.461 387.976 156.178C386.763 154.896 385.272 154.254 383.504 154.254C381.736 154.254 380.228 154.896 378.98 156.178C377.767 157.426 377.16 159.16 377.16 161.378C377.16 163.597 377.767 165.365 378.98 166.682C380.228 167.965 381.736 168.606 383.504 168.606C385.272 168.606 386.763 167.965 387.976 166.682C389.224 165.4 389.848 163.649 389.848 161.43ZM288.9 188.434C292.748 188.434 296.111 189.197 298.988 190.722C301.865 192.248 304.084 194.397 305.644 197.17C307.239 199.909 308.036 203.081 308.036 206.686C308.036 210.257 307.239 213.429 305.644 216.202C304.084 218.976 301.848 221.125 298.936 222.65C296.059 224.176 292.713 224.938 288.9 224.938H275.224V188.434H288.9ZM288.328 217.242C291.691 217.242 294.308 216.324 296.18 214.486C298.052 212.649 298.988 210.049 298.988 206.686C298.988 203.324 298.052 200.706 296.18 198.834C294.308 196.962 291.691 196.026 288.328 196.026H284.116V217.242H288.328ZM340.357 209.962C340.357 210.794 340.305 211.661 340.201 212.562H320.077C320.216 214.365 320.788 215.752 321.793 216.722C322.833 217.658 324.099 218.126 325.589 218.126C327.808 218.126 329.351 217.19 330.217 215.318H339.681C339.196 217.225 338.312 218.941 337.029 220.466C335.781 221.992 334.204 223.188 332.297 224.054C330.391 224.921 328.259 225.354 325.901 225.354C323.059 225.354 320.528 224.748 318.309 223.534C316.091 222.321 314.357 220.588 313.109 218.334C311.861 216.081 311.237 213.446 311.237 210.43C311.237 207.414 311.844 204.78 313.057 202.526C314.305 200.273 316.039 198.54 318.257 197.326C320.476 196.113 323.024 195.506 325.901 195.506C328.709 195.506 331.205 196.096 333.389 197.274C335.573 198.453 337.272 200.134 338.485 202.318C339.733 204.502 340.357 207.05 340.357 209.962ZM331.257 207.622C331.257 206.097 330.737 204.884 329.697 203.982C328.657 203.081 327.357 202.63 325.797 202.63C324.307 202.63 323.041 203.064 322.001 203.93C320.996 204.797 320.372 206.028 320.129 207.622H331.257ZM353.94 186.458V224.938H345.048V186.458H353.94ZM364.856 192.906C363.296 192.906 362.013 192.456 361.008 191.554C360.037 190.618 359.552 189.474 359.552 188.122C359.552 186.736 360.037 185.592 361.008 184.69C362.013 183.754 363.296 183.286 364.856 183.286C366.381 183.286 367.629 183.754 368.6 184.69C369.605 185.592 370.108 186.736 370.108 188.122C370.108 189.474 369.605 190.618 368.6 191.554C367.629 192.456 366.381 192.906 364.856 192.906ZM369.276 195.922V224.938H360.384V195.922H369.276ZM388.772 216.618L395.064 195.922H404.528L394.232 224.938H383.26L372.964 195.922H382.48L388.772 216.618ZM435.623 209.962C435.623 210.794 435.571 211.661 435.467 212.562H415.343C415.482 214.365 416.054 215.752 417.059 216.722C418.099 217.658 419.364 218.126 420.855 218.126C423.074 218.126 424.616 217.19 425.483 215.318H434.947C434.462 217.225 433.578 218.941 432.295 220.466C431.047 221.992 429.47 223.188 427.563 224.054C425.656 224.921 423.524 225.354 421.167 225.354C418.324 225.354 415.794 224.748 413.575 223.534C411.356 222.321 409.623 220.588 408.375 218.334C407.127 216.081 406.503 213.446 406.503 210.43C406.503 207.414 407.11 204.78 408.323 202.526C409.571 200.273 411.304 198.54 413.523 197.326C415.742 196.113 418.29 195.506 421.167 195.506C423.975 195.506 426.471 196.096 428.655 197.274C430.839 198.453 432.538 200.134 433.751 202.318C434.999 204.502 435.623 207.05 435.623 209.962ZM426.523 207.622C426.523 206.097 426.003 204.884 424.963 203.982C423.923 203.081 422.623 202.63 421.063 202.63C419.572 202.63 418.307 203.064 417.267 203.93C416.262 204.797 415.638 206.028 415.395 207.622H426.523ZM449.206 200.758C450.246 199.164 451.546 197.916 453.106 197.014C454.666 196.078 456.399 195.61 458.306 195.61V205.022H455.862C453.643 205.022 451.979 205.508 450.87 206.478C449.761 207.414 449.206 209.078 449.206 211.47V224.938H440.314V195.922H449.206V200.758ZM492.196 195.922L473.996 238.718H464.428L471.084 223.95L459.28 195.922H469.212L475.92 214.07L482.576 195.922H492.196Z" fill="#2F2F2F"/>
<path d="M421.118 156.35C429.615 170.798 455.06 192.733 488.864 164.889M488.864 164.889C531.118 130.084 489.362 106.093 464.177 122.315C438.991 138.537 459.805 168.918 488.864 164.889ZM488.864 164.889C500.666 165.039 527.254 162.17 539.19 149.495C554.11 133.651 546.5 97.4384 535 77.4384" stroke="#C4C4C4" stroke-opacity="0.7" stroke-width="3" stroke-dasharray="9 9"/>
<path d="M515.447 51.669C515.87 44.9536 523.889 41.7281 528.844 46.2808L544.458 60.628C548.79 64.6084 547.489 71.7458 542.031 73.941L525.084 80.7568C519.626 82.952 513.745 78.7034 514.115 72.8321L515.447 51.669Z" fill="#C4C4C4" fill-opacity="0.7"/>
</svg>
